<?xml version="1.0" encoding="UTF-8" standalone="no"?>
<svg
   xmlns:dc="http://purl.org/dc/elements/1.1/"
   xmlns:cc="http://creativecommons.org/ns#"
   xmlns:rdf="http://www.w3.org/1999/02/22-rdf-syntax-ns#"
   xmlns:svg="http://www.w3.org/2000/svg"
   xmlns="http://www.w3.org/2000/svg"
   xmlns:sodipodi="http://sodipodi.sourceforge.net/DTD/sodipodi-0.dtd"
   xmlns:inkscape="http://www.inkscape.org/namespaces/inkscape"
   width="400"
   height="420.50497"
   viewBox="0 0 399.99999 420.50496"
   version="1.1"
   id="svg8"
   inkscape:version="1.0.2 (e86c870879, 2021-01-15, custom)"
   sodipodi:docname="logo.svg">
  <defs
     id="defs2">
    <inkscape:path-effect
       update_on_knot_move="true"
       attempt_force_join="true"
       miter_limit="4"
       offset="0"
       unit="mm"
       linejoin_type="miter"
       lpeversion="1"
       is_visible="true"
       id="path-effect1876"
       effect="offset" />
    <inkscape:path-effect
       hide_knots="false"
       only_selected="false"
       apply_with_radius="true"
       apply_no_radius="true"
       use_knot_distance="true"
       flexible="false"
       chamfer_steps="1"
       radius="1"
       mode="F"
       method="auto"
       unit="px"
       satellites_param="F,0,0,1,0,1,0,1 @ F,0,0,1,0,1,0,1 @ F,0,0,1,0,1,0,1 @ F,0,0,1,0,1,0,1 @ F,0,0,1,0,1,0,1 @ F,0,0,1,0,1,0,1 @ F,0,0,1,0,1,0,1 @ F,0,0,1,0,1,0,1 @ F,0,0,1,0,1,0,1 @ F,0,0,1,0,1,0,1 @ F,0,0,1,0,1,0,1 @ F,0,0,1,0,1,0,1 @ F,0,0,1,0,1,0,1 @ F,0,0,1,0,1,0,1 @ F,0,0,1,0,1,0,1 @ F,0,0,1,0,1,0,1 @ F,0,0,1,0,1,0,1 @ F,0,0,1,0,1,0,1"
       lpeversion="1"
       is_visible="true"
       id="path-effect1874"
       effect="fillet_chamfer" />
    <inkscape:path-effect
       hide_knots="false"
       only_selected="false"
       apply_with_radius="true"
       apply_no_radius="true"
       use_knot_distance="true"
       flexible="false"
       chamfer_steps="1"
       radius="1"
       mode="F"
       method="auto"
       unit="px"
       satellites_param="F,0,0,1,0,1,0,1 @ F,0,0,1,0,1,0,1 @ F,0,0,1,0,1,0,1 @ F,0,0,1,0,1,0,1 @ F,0,0,1,0,1,0,1 @ F,0,0,1,0,1,0,1 @ F,0,0,1,0,1,0,1 @ F,0,0,1,0,1,0,1 @ F,0,0,1,0,1,0,1 @ F,0,0,1,0,1,0,1 @ F,0,0,1,0,1,0,1 @ F,0,0,1,0,1,0,1 @ F,0,0,1,0,1,0,1 @ F,0,0,1,0,1,0,1 @ F,0,0,1,0,1,0,1 @ F,0,0,1,0,1,0,1 @ F,0,0,1,0,1,0,1 @ F,0,0,1,0,1,0,1 @ F,0,0,1,0,1,0,1"
       lpeversion="1"
       is_visible="true"
       id="path-effect1872"
       effect="fillet_chamfer" />
    <inkscape:path-effect
       effect="lattice2"
       gridpoint0="90.195345,60.09637"
       gridpoint1="146.97121,60.09637"
       gridpoint2="90.195345,88.61866"
       gridpoint3="146.97121,88.61866"
       gridpoint4="104.38931,60.09637"
       gridpoint5="132.77724,60.09637"
       gridpoint6="104.38931,88.61866"
       gridpoint7="132.77724,88.61866"
       gridpoint8x9="118.58328,60.09637"
       gridpoint10x11="118.58328,88.61866"
       gridpoint12="90.195345,67.226943"
       gridpoint13="146.97121,67.226943"
       gridpoint14="90.195345,81.488088"
       gridpoint15="146.97121,81.488088"
       gridpoint16="104.38931,67.226943"
       gridpoint17="132.77724,67.226943"
       gridpoint18="104.38931,81.488088"
       gridpoint19="132.77724,81.488088"
       gridpoint20x21="118.58328,67.226943"
       gridpoint22x23="118.58328,81.488088"
       gridpoint24x26="90.195345,74.357515"
       gridpoint25x27="146.97121,74.357515"
       gridpoint28x30="104.38931,74.357515"
       gridpoint29x31="132.77724,74.357515"
       gridpoint32x33x34x35="118.58328,74.357515"
       id="path-effect997"
       is_visible="true"
       lpeversion="1"
       horizontal_mirror="false"
       vertical_mirror="false"
       perimetral="false"
       live_update="true" />
  </defs>
  <sodipodi:namedview
     fit-margin-bottom="0"
     fit-margin-right="0"
     fit-margin-left="0"
     fit-margin-top="0"
     id="base"
     pagecolor="#ffffff"
     bordercolor="#666666"
     borderopacity="1.0"
     inkscape:pageopacity="0.0"
     inkscape:pageshadow="2"
     inkscape:zoom="1"
     inkscape:cx="-242.08934"
     inkscape:cy="-62.032717"
     inkscape:document-units="px"
     inkscape:current-layer="g899"
     inkscape:document-rotation="0"
     showgrid="false"
     units="px"
     inkscape:snap-text-baseline="true"
     inkscape:snap-others="true"
     inkscape:window-width="2560"
     inkscape:window-height="1408"
     inkscape:window-x="0"
     inkscape:window-y="32"
     inkscape:window-maximized="0" />
  <metadata
     id="metadata5">
    <rdf:RDF>
      <cc:Work
         rdf:about="">
        <dc:format>image/svg+xml</dc:format>
        <dc:type
           rdf:resource="http://purl.org/dc/dcmitype/StillImage" />
        <dc:title></dc:title>
      </cc:Work>
    </rdf:RDF>
  </metadata>
  <g
     inkscape:label="Слой 1"
     inkscape:groupmode="layer"
     id="layer1"
     transform="translate(-1.9610988,-2.0016859)">
    <text
       xml:space="preserve"
       style="font-style:normal;font-weight:normal;font-size:10.5833px;line-height:1.25;font-family:sans-serif;letter-spacing:0px;word-spacing:0px;fill:#000000;fill-opacity:1;stroke:none;stroke-width:0.264583"
       x="52.20789"
       y="74.376945"
       id="text46"><tspan
         sodipodi:role="line"
         id="tspan44"
         x="52.20789"
         y="74.376945"
         style="font-style:normal;font-variant:normal;font-weight:normal;font-stretch:normal;font-size:50.8px;font-family:'Fira Sans';-inkscape-font-specification:'Fira Sans';stroke-width:0.264583" /></text>
    <g
       style="stroke:#000000;stroke-linecap:square;stroke-linejoin:round;stroke-opacity:1;paint-order:fill markers stroke"
       transform="matrix(4.4099406,0,0,4.4099406,-394.37663,-264.85697)"
       id="g899">
      <g
         id="g933"
         transform="matrix(1.6136442,0,0,1.6136442,-55.150483,-37.133432)">
        <path
           inkscape:original-d="m 123.69451,88.752707 8.37201,-8.372197 14.30051,-14.300838 -5.83427,-5.833753 -5.86011,5.447213 -5.46271,-5.462715 -5.64152,5.642031 5.58777,5.587775 -5.22397,5.22397 -5.95312,-5.821352 -5.95313,5.821352 -5.22397,-5.22397 5.58777,-5.587775 -5.64151,-5.642031 -5.46272,5.462715 -5.860105,-5.447729 -5.834269,5.834269 22.672514,22.672516 5.71542,-5.583121 z"
           inkscape:path-effect="#path-effect1872;#path-effect1876"
           d="m 124.40161,88.045592 6.95781,-6.957967 14.30051,-14.300838 a 0.99996716,0.99996716 89.998402 0 0 -4e-5,-1.41419 l -4.41999,-4.419603 a 1.0372284,1.0372284 1.0443693 0 0 -1.43958,-0.02624 l -4.39523,4.085549 a 1.0371819,1.0371819 1.0456518 0 1 -1.43955,-0.02627 l -4.04849,-4.048501 a 0.99995426,0.99995426 179.99872 0 0 -1.41418,3.2e-5 l -4.22738,4.227753 a 1.0000457,1.0000457 89.998715 0 0 4e-5,1.414246 l 4.17355,4.173561 a 1.0000004,1.0000004 90.000013 0 1 0,1.414214 l -3.80975,3.809756 a 1.0112536,1.0112536 179.67942 0 1 -1.42209,0.008 l -4.52316,-4.423052 a 1.0226362,1.0226362 2.4055193e-5 0 0 -1.42996,-1e-6 l -4.52317,4.423054 a 1.0112545,1.0112545 0.32060892 0 1 -1.42209,-0.008 l -3.80975,-3.809756 a 1.0000004,1.0000004 89.999987 0 1 0,-1.414214 l 4.17355,-4.173561 a 1.0000466,1.0000466 90.00131 0 0 4e-5,-1.414246 l -4.22737,-4.227753 a 0.99995429,0.99995429 0.00133588 0 0 -1.41418,-3.3e-5 l -4.0485,4.048503 a 1.0371334,1.0371334 178.95574 0 1 -1.43952,0.02624 L 96.157842,60.92627 a 1.0371329,1.0371329 178.95573 0 0 -1.439514,0.02624 l -4.420055,4.420055 a 1,1 90.000001 0 0 0,1.414214 l 21.258297,21.258302 a 1.0117779,1.0117779 0.33543519 0 0 1.42245,0.0083 l 4.28474,-4.185563 a 1.0236478,1.0236478 0.00135617 0 1 1.43064,3.4e-5 l 4.28481,4.186014 a 1.0117187,1.0117187 179.6656 0 0 1.4224,-0.0083 z"
           style="fill:none;fill-opacity:0.754808;stroke:#000000;stroke-width:0.265;stroke-linecap:square;stroke-linejoin:round;stroke-miterlimit:4;stroke-dasharray:none;stroke-opacity:1;paint-order:fill markers stroke"
           id="path967"
           sodipodi:nodetypes="cccccccccccccccccccc" />
        <path
           inkscape:original-d="m 123.69452,91.365516 22.67251,22.673034 -5.83426,5.83375 -5.86012,-5.44721 -5.4627,5.46271 -5.64152,-5.64203 5.58777,-5.58777 -5.22397,-5.22397 -5.95312,5.82135 -5.95314,-5.82135 -5.22397,5.22397 5.58777,5.58777 -5.64151,5.64203 -5.46271,-5.46271 -5.860114,5.44772 -5.834269,-5.83426 22.672513,-22.672514 5.71543,5.58312 z"
           inkscape:path-effect="#path-effect1874"
           sodipodi:nodetypes="ccccccccccccccccccc"
           id="path967-3"
           style="fill:none;fill-opacity:0.754808;stroke:#000000;stroke-width:0.264999;stroke-linecap:square;stroke-linejoin:round;stroke-miterlimit:4;stroke-dasharray:none;stroke-opacity:1;paint-order:fill markers stroke"
           d="m 124.40162,92.072631 21.25831,21.258809 a 0.99996785,0.99996785 90.001583 0 1 -4e-5,1.41419 l -4.41998,4.41959 a 1.0372289,1.0372289 178.95558 0 1 -1.43958,0.0262 l -4.39524,-4.08555 a 1.0371826,1.0371826 178.9543 0 0 -1.43955,0.0263 l -4.04848,4.04849 a 0.99995389,0.99995389 0.00126862 0 1 -1.41418,-3e-5 l -4.22738,-4.22775 a 1.0000452,1.0000452 90.001295 0 1 4e-5,-1.41425 l 4.17355,-4.17355 a 1,1 90 0 0 0,-1.41422 l -3.80975,-3.80975 a 1.0112538,1.0112538 0.32058979 0 0 -1.42209,-0.008 l -4.52316,4.42305 a 1.0226374,1.0226374 179.99995 0 1 -1.42996,0 l -4.52318,-4.42305 a 1.0112555,1.0112555 179.67936 0 0 -1.42209,0.008 l -3.80975,3.80975 a 1,1 90 0 0 0,1.41422 l 4.17355,4.17355 a 1.0000461,1.0000461 89.99868 0 1 4e-5,1.41425 l -4.22737,4.22775 a 0.99995392,0.99995392 179.99868 0 1 -1.41418,3e-5 l -4.04849,-4.04849 a 1.0371346,1.0371346 1.0443189 0 0 -1.43952,-0.0262 l -4.395296,4.08598 a 1.0371354,1.0371354 1.0442968 0 1 -1.439515,-0.0262 l -4.420055,-4.42004 a 0.99999925,0.99999925 89.999977 0 1 0,-1.41422 L 111.55657,92.073143 a 1.0117789,1.0117789 179.66454 0 1 1.42245,-0.0083 l 4.28475,4.185564 a 1.0236488,1.0236488 179.99862 0 0 1.43064,-3.5e-5 l 4.28481,-4.186014 a 1.0117183,1.0117183 0.33440881 0 1 1.4224,0.0083 z" />
      </g>
    </g>
  </g>
</svg>
